<svg xmlns="http://www.w3.org/2000/svg" xmlns:xlink="http://www.w3.org/1999/xlink" version="1.1" width="100" height="100" viewBox="0 0 100 100" xml:space="preserve">
<desc>Created with Fabric.js 3.5.0</desc>
<defs>
</defs>
<rect x="0" y="0" width="100%" height="100%" fill="rgba(180,180,180,0)"/>
<g transform="matrix(0.1953 0 0 0.2232 50.4968 50.4968)" id="118698">
<path style="stroke: none; stroke-width: 1; stroke-dasharray: none; stroke-linecap: butt; stroke-dashoffset: 0; stroke-linejoin: miter; stroke-miterlimit: 4; is-custom-font: none; font-file-url: none; fill: rgb(0,134,179); fill-rule: nonzero; opacity: 1;" vector-effect="non-scaling-stroke" transform=" translate(-256, -256)" d="M 328.7 52.28 L 431.7 119.8 C 449.5 132.9 453.3 157.9 440.2 175.7 C 427.1 193.5 402.1 197.3 384.3 184.2 L 296.6 127.1 H 191.1 C 183.2 127.1 175.1 135.2 175.1 143.1 C 175.1 152.7 183.2 159.1 191.1 159.1 H 254.2 C 270.2 159.1 284.1 170.9 287.6 186.6 C 290.8 206.6 275.5 223.1 255.1 223.1 H 143.1 C 116.1 223.1 90.87 214.7 69.87 197.7 L 23.37 159.1 L 15.1 160 C 7.25 160 0 152.7 0 143.1 V 47.99 C 0 39.25 7.25 32 15.1 32 H 266.1 C 289 32 310.9 39.19 328.7 52.28 L 328.7 52.28 z M 151.3 459.7 L 16.27 360.2 C -1.509 347.1 -5.305 322.1 7.803 304.3 C 20.93 286.5 45.94 282.7 63.74 295.8 L 183.4 384 H 304 C 312.8 384 320 376.8 320 368 C 320 359.3 312.8 352 304 352 H 225.8 C 209.8 352 195 341.1 192.4 325.4 C 189.2 305.4 204.5 288 224 288 H 352 C 379 288 405.1 297.3 426.1 314.3 L 472.6 352 L 496 352 C 504.7 352 512 359.3 512 368 V 464 C 512 472.8 504.7 480 496 480 H 213 C 190.1 480 169.1 472.8 151.3 459.7 V 459.7 z" stroke-linecap="round"/>
</g>
</svg>