<svg xmlns="http://www.w3.org/2000/svg" xmlns:xlink="http://www.w3.org/1999/xlink" version="1.1" width="100" height="100" viewBox="0 0 100 100" xml:space="preserve">
<desc>Created with Fabric.js 3.5.0</desc>
<defs>
</defs>
<rect x="0" y="0" width="100%" height="100%" fill="rgba(180,180,180,0)"/>
<g transform="matrix(1 0 0 1 50 50)" id="431757">
<g style="" vector-effect="non-scaling-stroke">
		<g transform="matrix(1 0 0 1 0 0)">
<rect style="stroke: none; stroke-width: 1; stroke-dasharray: none; stroke-linecap: butt; stroke-dashoffset: 0; stroke-linejoin: miter; stroke-miterlimit: 4; is-custom-font: none; font-file-url: none; fill: rgb(180,180,180); fill-opacity: 0; fill-rule: nonzero; opacity: 1;" x="-50" y="-50" rx="0" ry="0" width="100" height="100"/>
</g>
		<g transform="matrix(0.2595 0 0 0.2572 0.324 -0.0044)" id="278737">
<path style="stroke: none; stroke-width: 1; stroke-dasharray: none; stroke-linecap: butt; stroke-dashoffset: 0; stroke-linejoin: miter; stroke-miterlimit: 4; is-custom-font: none; font-file-url: none; fill: rgb(180,180,180); fill-rule: nonzero; opacity: 1;" vector-effect="non-scaling-stroke" transform=" translate(-256, -256)" d="M 340.8 83 C 307 83 276 98.8 256 124.8 c -20 -26 -51 -41.8 -84.8 -41.8 C 112.1 83 64 131.3 64 190.7 c 0 27.9 10.6 54.4 29.9 74.6 L 245.1 418 l 10.9 11 l 10.9 -11 l 148.3 -149.8 c 21 -20.3 32.8 -47.9 32.8 -77.5 C 448 131.3 399.9 83 340.8 83 L 340.8 83 z" stroke-linecap="round"/>
</g>
</g>
</g>
</svg>