<svg xmlns="http://www.w3.org/2000/svg" xmlns:xlink="http://www.w3.org/1999/xlink" version="1.1" width="100" height="100" viewBox="0 0 100 100" xml:space="preserve">
<desc>Created with Fabric.js 3.5.0</desc>
<defs>
</defs>
<rect x="0" y="0" width="100%" height="100%" fill="rgba(180,180,180,0)"/>
<g transform="matrix(4.9832 0 0 4.9444 50.0002 50.0032)" id="815348">
<path style="stroke: none; stroke-width: 1; stroke-dasharray: none; stroke-linecap: butt; stroke-dashoffset: 0; stroke-linejoin: miter; stroke-miterlimit: 4; is-custom-font: none; font-file-url: none; fill: rgb(0,134,179); fill-rule: nonzero; opacity: 1;" vector-effect="non-scaling-stroke" transform=" translate(-12, -11.988)" d="M 20 8 h 0 L 14 2.74 a 3 3 0 0 0 -4 0 L 4 8 a 3 3 0 0 0 -1 2.26 V 19 a 3 3 0 0 0 3 3 H 18 a 3 3 0 0 0 3 -3 V 10.25 A 3 3 0 0 0 20 8 Z M 14 20 H 10 V 15 a 1 1 0 0 1 1 -1 h 2 a 1 1 0 0 1 1 1 Z m 5 -1 a 1 1 0 0 1 -1 1 H 16 V 15 a 3 3 0 0 0 -3 -3 H 11 a 3 3 0 0 0 -3 3 v 5 H 6 a 1 1 0 0 1 -1 -1 V 10.25 a 1 1 0 0 1 0.34 -0.75 l 6 -5.25 a 1 1 0 0 1 1.32 0 l 6 5.25 a 1 1 0 0 1 0.34 0.75 Z" stroke-linecap="round"/>
</g>
</svg>