<svg xmlns="http://www.w3.org/2000/svg" xmlns:xlink="http://www.w3.org/1999/xlink" version="1.1" width="1000" height="1000" viewBox="0 0 1000 1000" xml:space="preserve">
<desc>Created with Fabric.js 3.5.0</desc>
<defs>
</defs>
<rect x="0" y="0" width="100%" height="100%" fill="rgba(255,255,255,0)"/>
<g transform="matrix(1.7802 0 0 1.7802 500.0048 500.0063)" id="845152">
<path style="stroke: none; stroke-width: 1; stroke-dasharray: none; stroke-linecap: butt; stroke-dashoffset: 0; stroke-linejoin: miter; stroke-miterlimit: 4; is-custom-font: none; font-file-url: none; fill: rgb(180,180,180); fill-rule: nonzero; opacity: 1;" vector-effect="non-scaling-stroke" transform=" translate(-192, -255.3375)" d="M 168.3 499.2 C 116.1 435 0 279.4 0 192 C 0 85.96 85.96 0 192 0 C 298 0 384 85.96 384 192 C 384 279.4 267 435 215.7 499.2 C 203.4 514.5 180.6 514.5 168.3 499.2 H 168.3 z M 192 256 C 227.3 256 256 227.3 256 192 C 256 156.7 227.3 128 192 128 C 156.7 128 128 156.7 128 192 C 128 227.3 156.7 256 192 256 z" stroke-linecap="round"/>
</g>
</svg>