<svg xmlns="http://www.w3.org/2000/svg" xmlns:xlink="http://www.w3.org/1999/xlink" version="1.1" width="100" height="100" viewBox="0 0 100 100" xml:space="preserve">
<desc>Created with Fabric.js 3.5.0</desc>
<defs>
</defs>
<rect x="0" y="0" width="100%" height="100%" fill="rgba(180,180,180,0)"/>
<g transform="matrix(5.8809 0 0 5.8809 50.5003 50.5003)" id="152534">
<path style="stroke: none; stroke-width: 1; stroke-dasharray: none; stroke-linecap: butt; stroke-dashoffset: 0; stroke-linejoin: miter; stroke-miterlimit: 4; is-custom-font: none; font-file-url: none; fill: rgb(180,180,180); fill-rule: nonzero; opacity: 1;" vector-effect="non-scaling-stroke" transform=" translate(-11.9978, -12.0022)" d="M 20.42 4.12 a 1 1 0 0 0 -0.54 -0.54 a 1 1 0 0 0 -0.38 -0.08 h -4 a 1 1 0 0 0 0 2 h 1.59 l -2.4 2.4 A 7 7 0 1 0 16.1 9.31 l 2.4 -2.4 V 8.5 a 1 1 0 0 0 2 0 v -4 A 1 1 0 0 0 20.42 4.12 Z M 14 17 A 5 5 0 1 1 14 10 h 0 A 5 5 0 0 1 14 17 Z" stroke-linecap="round"/>
</g>
</svg>