<svg xmlns="http://www.w3.org/2000/svg" xmlns:xlink="http://www.w3.org/1999/xlink" version="1.1" width="100" height="100" viewBox="0 0 100 100" xml:space="preserve">
<desc>Created with Fabric.js 3.5.0</desc>
<defs>
</defs>
<rect x="0" y="0" width="100%" height="100%" fill="rgba(180,180,180,0)"/>
<g transform="matrix(0.1526 0 0 0.137 49.332 49.9934)" id="426923">
<path style="stroke: none; stroke-width: 1; stroke-dasharray: none; stroke-linecap: butt; stroke-dashoffset: 0; stroke-linejoin: miter; stroke-miterlimit: 4; is-custom-font: none; font-file-url: none; fill: rgb(180,180,180); fill-rule: nonzero; opacity: 1;" vector-effect="non-scaling-stroke" transform=" translate(-320, -256)" d="M 208 0 C 322.9 0 416 78.8 416 176 C 416 273.2 322.9 352 208 352 C 189.3 352 171.2 349.7 153.9 345.8 C 123.3 364.8 79.13 384 24.95 384 C 14.97 384 5.93 378.1 2.018 368.9 C -1.896 359.7 -0.0074 349.1 6.739 341.9 C 7.26 341.5 29.38 317.4 45.73 285.9 C 17.18 255.8 0 217.6 0 176 C 0 78.8 93.13 0 208 0 z M 164.6 298.1 C 179.2 302.3 193.8 304 208 304 C 296.2 304 368 246.6 368 176 C 368 105.4 296.2 48 208 48 C 119.8 48 48 105.4 48 176 C 48 211.2 65.71 237.2 80.57 252.9 L 104.1 277.8 L 88.31 308.1 C 84.74 314.1 80.73 321.9 76.55 328.5 C 94.26 323.4 111.7 315.5 128.7 304.1 L 145.4 294.6 L 164.6 298.1 z M 441.6 128.2 C 552 132.4 640 209.5 640 304 C 640 345.6 622.8 383.8 594.3 413.9 C 610.6 445.4 632.7 469.5 633.3 469.9 C 640 477.1 641.9 487.7 637.1 496.9 C 634.1 506.1 625 512 615 512 C 560.9 512 516.7 492.8 486.1 473.8 C 468.8 477.7 450.7 480 432 480 C 350 480 279.1 439.8 245.2 381.5 C 262.5 379.2 279.1 375.3 294.9 369.9 C 322.9 407.1 373.9 432 432 432 C 446.2 432 460.8 430.3 475.4 426.1 L 494.6 422.6 L 511.3 432.1 C 528.3 443.5 545.7 451.4 563.5 456.5 C 559.3 449.9 555.3 442.1 551.7 436.1 L 535.9 405.8 L 559.4 380.9 C 574.3 365.3 592 339.2 592 304 C 592 237.7 528.7 183.1 447.1 176.6 L 448 176 C 448 159.5 445.8 143.5 441.6 128.2 H 441.6 z" stroke-linecap="round"/>
</g>
</svg>