<svg xmlns="http://www.w3.org/2000/svg" xmlns:xlink="http://www.w3.org/1999/xlink" version="1.1" width="100" height="100" viewBox="0 0 100 100" xml:space="preserve">
<desc>Created with Fabric.js 3.5.0</desc>
<defs>
</defs>
<rect x="0" y="0" width="100%" height="100%" fill="rgba(180,180,180,0)"/>
<g transform="matrix(0.761 0 0.0177 0.7837 49.8366 50.1568)" id="869860">
<g style="" vector-effect="non-scaling-stroke">
		<g transform="matrix(1 0 0 1 0 1)" id="Layer_1">
<polygon style="stroke: none; stroke-width: 1; stroke-dasharray: none; stroke-linecap: butt; stroke-dashoffset: 0; stroke-linejoin: miter; stroke-miterlimit: 4; is-custom-font: none; font-file-url: none; fill: rgb(180,180,180); fill-rule: nonzero; opacity: 1;" points="-52,52 52,52 52,17 44,17 44,44 -44,44 -44,-44 -4,-44 -4,-52 -52,-52 "/>
</g>
		<g transform="matrix(1 0 0 1 27.85 -18.4)" id="Layer_1">
<path style="stroke: none; stroke-width: 1; stroke-dasharray: none; stroke-linecap: butt; stroke-dashoffset: 0; stroke-linejoin: miter; stroke-miterlimit: 4; is-custom-font: none; font-file-url: none; fill: rgb(180,180,180); fill-rule: nonzero; opacity: 1;" transform=" translate(-91.85, -45.6)" d="M 60 62 v 10 h 8 V 62 c 0 -8.8 7.2 -16 16 -16 h 24.3 L 95.2 59.2 l 5.7 5.7 L 123.7 42 l -22.8 -22.8 l -5.7 5.7 L 108.3 38 H 84 C 70.8 38 60 48.8 60 62 z" stroke-linecap="round"/>
</g>
</g>
</g>
</svg>