<svg xmlns="http://www.w3.org/2000/svg" xmlns:xlink="http://www.w3.org/1999/xlink" version="1.1" width="100" height="100" viewBox="0 0 100 100" xml:space="preserve">
<desc>Created with Fabric.js 3.5.0</desc>
<defs>
</defs>
<rect x="0" y="0" width="100%" height="100%" fill="rgba(180,180,180,0)"/>
<g transform="matrix(4.7386 0 0 4.8809 49.9996 49.3293)" id="374543">
<path style="stroke: none; stroke-width: 1; stroke-dasharray: none; stroke-linecap: butt; stroke-dashoffset: 0; stroke-linejoin: miter; stroke-miterlimit: 4; is-custom-font: none; font-file-url: none; fill: rgb(180,180,180); fill-rule: nonzero; opacity: 1;" vector-effect="non-scaling-stroke" transform=" translate(-11.9998, -11.9958)" d="M 19 9 a 7 7 0 1 0 -8 6.92 V 18 H 10 a 1 1 0 0 0 0 2 h 1 v 1 a 1 1 0 0 0 2 0 V 20 h 1 a 1 1 0 0 0 0 -2 H 13 V 15.92 A 7 7 0 0 0 19 9 Z m -7 5 a 5 5 0 1 1 5 -5 A 5 5 0 0 1 12 14 Z" stroke-linecap="round"/>
</g>
</svg>